<svg width="240" height="236" viewBox="0 0 240 236" fill="none" xmlns="http://www.w3.org/2000/svg">
<path fill-rule="evenodd" clip-rule="evenodd" d="M122.785 0.0360206C138.496 -0.682995 152.271 9.49381 165.538 18.7928C179.692 28.7146 196.881 37.6645 201.714 55.3621C206.527 72.985 196.777 90.8775 189.791 107.595C183.594 122.426 175.989 136.503 163.876 145.912C151.885 155.225 137.348 161.615 122.785 159.641C108.998 157.773 100.744 142.784 88.4371 135.689C72.8671 126.713 50.2706 129.457 41.4181 112.735C32.5536 95.9896 38.4937 73.5912 46.3947 56.2707C53.6576 40.3489 69.0889 32.492 82.5382 22.5914C95.3669 13.1476 107.369 0.741563 122.785 0.0360206Z" fill="#608AF5"/>
<path d="M89.9583 73.7501H81.625C80.5199 73.7501 79.4601 74.189 78.6787 74.9704C77.8973 75.7518 77.4583 76.8117 77.4583 77.9167C77.4583 79.0218 77.8973 80.0816 78.6787 80.863C79.4601 81.6444 80.5199 82.0834 81.625 82.0834H89.9583C91.0634 82.0834 92.1232 81.6444 92.9046 80.863C93.686 80.0816 94.125 79.0218 94.125 77.9167C94.125 76.8117 93.686 75.7518 92.9046 74.9704C92.1232 74.189 91.0634 73.7501 89.9583 73.7501ZM159.875 61.9167V61.6667C158.681 60.2075 157.173 59.0372 155.463 58.2435C153.753 57.4498 151.885 57.0532 150 57.0834H116.958C113.897 57.0559 110.931 58.153 108.625 60.1667C106.471 62.0648 105.055 64.6613 104.625 67.5001L100.958 88.3334C100.643 90.1325 100.726 91.9789 101.201 93.7426C101.676 95.5063 102.532 97.1444 103.708 98.5417C104.879 99.9344 106.339 101.055 107.987 101.825C109.635 102.595 111.431 102.996 113.25 103H146.333C149.305 103.045 152.196 102.029 154.487 100.136C156.777 98.242 158.318 95.594 158.833 92.6667L162.5 71.8334C162.789 70.0888 162.704 68.3028 162.252 66.5934C161.799 64.8839 160.989 63.29 159.875 61.9167ZM148.458 65.4167L134.292 76.9167C133.454 77.5918 132.388 77.9167 131.316 77.8235C130.244 77.7303 129.25 77.2262 128.542 76.4167L118.833 65.4167H148.458ZM150.458 91.1251C150.29 92.1034 149.777 92.9893 149.013 93.6233C148.249 94.2574 147.284 94.5978 146.292 94.5834H113.25C112.645 94.5783 112.048 94.4415 111.501 94.1824C110.954 93.9234 110.471 93.5484 110.083 93.0834C109.695 92.6209 109.412 92.0795 109.254 91.4967C109.095 90.914 109.066 90.3038 109.167 89.7084L112.5 70.8334L122.292 81.9167C124.423 84.3391 127.408 85.8435 130.623 86.1153C133.838 86.3871 137.034 85.4052 139.542 83.3751L153.875 71.6667L150.458 91.1251ZM94.125 57.0834H81.625C80.5199 57.0834 79.4601 57.5224 78.6787 58.3038C77.8973 59.0852 77.4583 60.145 77.4583 61.2501C77.4583 62.3551 77.8973 63.4149 78.6787 64.1963C79.4601 64.9777 80.5199 65.4167 81.625 65.4167H94.125C95.2301 65.4167 96.2899 64.9777 97.0713 64.1963C97.8527 63.4149 98.2917 62.3551 98.2917 61.2501C98.2917 60.145 97.8527 59.0852 97.0713 58.3038C96.2899 57.5224 95.2301 57.0834 94.125 57.0834Z" fill="white"/>
<path d="M74.5886 203.195V211.35H83.4786V213.975H74.5886V222.375H84.5286V225H71.4036V200.57H84.5286V203.195H74.5886ZM114.338 205.47C115.831 205.47 117.161 205.785 118.328 206.415C119.495 207.022 120.416 207.943 121.093 209.18C121.77 210.417 122.108 211.922 122.108 213.695V225H118.958V214.15C118.958 212.237 118.48 210.778 117.523 209.775C116.59 208.748 115.318 208.235 113.708 208.235C112.051 208.235 110.733 208.772 109.753 209.845C108.773 210.895 108.283 212.423 108.283 214.43V225H105.133V214.15C105.133 212.237 104.655 210.778 103.698 209.775C102.765 208.748 101.493 208.235 99.8829 208.235C98.2263 208.235 96.9079 208.772 95.9279 209.845C94.9479 210.895 94.4579 212.423 94.4579 214.43V225H91.2729V205.82H94.4579V208.585C95.0879 207.582 95.9279 206.812 96.9779 206.275C98.0513 205.738 99.2296 205.47 100.513 205.47C102.123 205.47 103.546 205.832 104.783 206.555C106.02 207.278 106.941 208.34 107.548 209.74C108.085 208.387 108.971 207.337 110.208 206.59C111.445 205.843 112.821 205.47 114.338 205.47ZM128.068 215.34C128.068 213.38 128.464 211.665 129.258 210.195C130.051 208.702 131.136 207.547 132.513 206.73C133.913 205.913 135.464 205.505 137.168 205.505C138.848 205.505 140.306 205.867 141.543 206.59C142.779 207.313 143.701 208.223 144.308 209.32V205.82H147.528V225H144.308V221.43C143.678 222.55 142.733 223.483 141.473 224.23C140.236 224.953 138.789 225.315 137.133 225.315C135.429 225.315 133.889 224.895 132.513 224.055C131.136 223.215 130.051 222.037 129.258 220.52C128.464 219.003 128.068 217.277 128.068 215.34ZM144.308 215.375C144.308 213.928 144.016 212.668 143.433 211.595C142.849 210.522 142.056 209.705 141.053 209.145C140.073 208.562 138.988 208.27 137.798 208.27C136.608 208.27 135.523 208.55 134.543 209.11C133.563 209.67 132.781 210.487 132.198 211.56C131.614 212.633 131.323 213.893 131.323 215.34C131.323 216.81 131.614 218.093 132.198 219.19C132.781 220.263 133.563 221.092 134.543 221.675C135.523 222.235 136.608 222.515 137.798 222.515C138.988 222.515 140.073 222.235 141.053 221.675C142.056 221.092 142.849 220.263 143.433 219.19C144.016 218.093 144.308 216.822 144.308 215.375ZM156.48 202.705C155.873 202.705 155.36 202.495 154.94 202.075C154.52 201.655 154.31 201.142 154.31 200.535C154.31 199.928 154.52 199.415 154.94 198.995C155.36 198.575 155.873 198.365 156.48 198.365C157.063 198.365 157.553 198.575 157.95 198.995C158.37 199.415 158.58 199.928 158.58 200.535C158.58 201.142 158.37 201.655 157.95 202.075C157.553 202.495 157.063 202.705 156.48 202.705ZM158.02 205.82V225H154.835V205.82H158.02ZM168.558 199.1V225H165.373V199.1H168.558Z" fill="#3F3D56"/>
</svg>
